<?xml version="1.0" encoding="utf-8"?>
<svg viewBox="163.756 84.608 80.58 90.818" xmlns="http://www.w3.org/2000/svg">
	<g fill="#236dc7" transform="matrix(1, 0, 0, 1, 154.087021, 80.024269)">
		<path
			d="M 50 6.272 L 12.13 28.137 L 12.13 71.865 L 50 93.728 L 87.87 71.865 L 87.87 28.137 L 50 6.272 Z M 78.438 32.691 L 51 16.85 L 51 9.159 L 84.898 28.73 L 78.438 32.691 Z M 49 31.731 L 34.428 40.144 L 49 31.731 Z M 32.79 41.498 L 32.79 59.308 L 32.79 41.498 Z M 33.35 61.286 L 49 70.321 L 33.35 61.286 Z M 51 70.321 L 66.65 61.286 L 51 70.321 Z M 67.21 59.307 L 67.21 41.924 L 67.21 59.307 Z M 65.94 40.357 L 51 31.732 L 65.94 40.357 Z M 49 29.422 L 32.453 38.975 L 23.674 33.781 L 49 19.159 L 49 29.422 Z M 30.79 40.315 L 30.79 60.422 L 22.79 64.873 L 22.79 35.582 L 30.79 40.315 Z M 31.313 62.42 L 49 72.63 L 49 80.842 L 24.071 66.449 L 31.313 62.42 Z M 51 72.63 L 68.687 62.419 L 75.93 66.449 L 51 80.842 L 51 72.63 Z M 69.21 60.421 L 69.21 40.698 L 77.21 35.791 L 77.21 64.872 L 69.21 60.421 Z M 67.879 39.168 L 51 29.423 L 51 19.159 L 76.5 33.881 L 67.879 39.168 Z M 49 16.849 L 21.699 32.612 L 15.12 28.719 L 49 9.159 L 49 16.849 Z M 20.79 34.398 L 20.79 65.986 L 14.13 69.691 L 14.13 30.458 L 20.79 34.398 Z M 22.034 67.583 L 49 83.15 L 49 90.841 L 15.251 71.357 L 22.034 67.583 Z M 51 83.15 L 77.966 67.582 L 84.749 71.357 L 51 90.842 L 51 83.15 Z M 79.21 65.985 L 79.21 34.564 L 85.87 30.479 L 85.87 69.691 L 79.21 65.985 Z"
			style="fill: rgb(33, 150, 243);"/>
	</g>
	<g style="" transform="matrix(0.365621, 0, 0, 0.351877, 184.877762, 109.447319)">
		<path class="st0"
			  d="M 52.53 0 C 81.4 0 104.8 10.96 104.8 24.46 C 104.8 37.97 81.39 48.92 52.53 48.92 C 23.67 48.92 0.26 37.96 0.26 24.46 C 0.26 10.96 23.67 0 52.53 0 Z M -0.004 81.541 L -0.013 100.407 C 9.287 133.437 101.646 127.16 105.016 98.82 L 105.108 80.02 C 100.518 111.13 7.346 113.221 -0.004 81.541 Z M 0 32.94 L 0 51.28 C 9.3 83.54 101.69 79.18 105.07 51.51 L 105.07 33.18 C 100.47 63.57 7.35 63.88 0 32.94 Z M 0 56.64 L 0 75.42 C 9.3 108.45 101.69 103.99 105.07 75.65 L 105.07 56.89 C 100.47 88 7.35 88.32 0 56.64 Z"
			  style="clip-rule: evenodd; fill-rule: evenodd; fill: rgb(30, 30, 30);"/>
	</g>
</svg>
