<?xml version="1.0" encoding="utf-8"?>
<!-- Generator: Adobe Illustrator 26.2.1, SVG Export Plug-In . SVG Version: 6.00 Build 0)  -->
<svg version="1.1" id="Layer_1" xmlns="http://www.w3.org/2000/svg" xmlns:xlink="http://www.w3.org/1999/xlink" x="0px" y="0px"
	 width="550px" height="200px" viewBox="0 0 550 200" enable-background="new 0 0 550 200" xml:space="preserve">
<g>
	<path fill="#ED2127" d="M453.86,49.24c0.36,0.05,0.72-0.09,0.94-0.38c0.13-0.12,0.19-0.3,0.17-0.48c0-0.3-0.17-0.57-0.44-0.7
		c-0.34-0.11-0.71-0.15-1.07-0.12h-0.3v1.68H453.86z M453.46,46.64c0.51-0.03,1.02,0.02,1.52,0.14c0.68,0.23,1.12,0.89,1.09,1.61
		c-0.01,0.16-0.03,0.32-0.06,0.47c-0.07,0.42-0.33,0.79-0.71,1c-0.07,0.05-0.14,0.1-0.22,0.14l1.32,2.38h-1.28l-1.19-2.19h-0.77
		v2.19h-1.15v-5.74H453.46z M453.96,54.8c2.81,0.01,5.09-2.27,5.1-5.08c0-0.01,0-0.02,0-0.03c0.01-2.83-2.28-5.14-5.11-5.15
		s-5.14,2.28-5.15,5.11c-0.01,2.83,2.28,5.14,5.11,5.15C453.93,54.8,453.94,54.8,453.96,54.8 M449.9,49.67c0-2.21,1.79-4,4-4
		s4,1.79,4,4c0,2.19-1.75,3.97-3.94,4c-2.21,0.03-4.03-1.73-4.06-3.94C449.9,49.71,449.9,49.69,449.9,49.67 M414.26,82.42
		c-6.61,0-12.41-4.39-14.22-10.75h37.52l5.17-8h-42.68c1.77-6.38,7.58-10.8,14.21-10.81h25.77l5.16-8.07h-31.5
		c-12.61,0.26-22.62,10.7-22.36,23.31c0.26,12.24,10.12,22.1,22.36,22.36h27.09l5.16-8L414.26,82.42z M306.89,90.42h27.1l5.13-8
		H307.5c-8.16,0-14.78-6.62-14.78-14.78c0-8.16,6.62-14.78,14.78-14.78c0,0,0,0,0,0h25.76l5.17-8.07H306.9
		c-12.61-0.26-23.05,9.75-23.31,22.36c-0.26,12.61,9.75,23.05,22.36,23.31c0.32,0.01,0.64,0.01,0.96,0 M140.17,82.46h-25.35
		c-8.16,0-14.78-6.62-14.78-14.78c0-8.16,6.62-14.78,14.78-14.78h25.35c8.16,0,14.78,6.62,14.78,14.78
		C154.95,75.84,148.34,82.46,140.17,82.46C140.17,82.46,140.17,82.46,140.17,82.46 M114.26,90.46h26.52
		c12.61-0.26,22.62-10.7,22.36-23.31c-0.26-12.24-10.12-22.1-22.36-22.36h-26.52c-12.61-0.26-23.05,9.75-23.31,22.36
		s9.75,23.05,22.36,23.31C113.62,90.46,113.94,90.46,114.26,90.46 M206.69,75.67c8.53,0,15.44-6.91,15.44-15.44
		s-6.91-15.44-15.44-15.44h-38.43v45.67h8.78v-37.6h29.06c4.08,0,7.39,3.31,7.39,7.39s-3.31,7.39-7.39,7.39h-24.76l26.22,22.84h12.7
		l-17.58-14.81H206.69z M351.92,82.39v-37.6h-8.8v41.3c0.01,1.13,0.48,2.21,1.3,3c0.84,0.87,1.99,1.35,3.2,1.35h40l5.22-8.07
		L351.92,82.39z M244.45,74.39h23.43l-12.38-20l-22.72,36.07h-10.37l27.66-43.27c2.09-2.99,6.2-3.71,9.19-1.63
		c0.61,0.42,1.14,0.95,1.57,1.55l27.74,43.37h-10.31l-4.88-8.07h-23.76L244.45,74.39z"/>
	<g>
		<path d="M161.41,142.76v-33.75h9.97c2.26,0,4.32,0.38,6.18,1.14c1.86,0.76,3.46,1.84,4.8,3.23s2.38,3.09,3.12,5.07
			c0.74,1.98,1.11,4.19,1.11,6.63v1.67c0,2.44-0.37,4.65-1.1,6.62c-0.73,1.97-1.78,3.65-3.13,5.04s-2.98,2.46-4.89,3.22
			c-1.91,0.76-4.03,1.14-6.36,1.14H161.41z M167.28,113.74v24.34h3.83c1.59,0,2.99-0.26,4.2-0.78c1.21-0.52,2.21-1.26,3-2.24
			c0.8-0.97,1.39-2.16,1.8-3.57c0.4-1.41,0.6-2.99,0.6-4.75v-1.72c0-3.66-0.8-6.46-2.39-8.39c-1.59-1.93-3.9-2.9-6.93-2.9H167.28z"
			/>
		<path d="M210.84,134.9h-13.08l-2.74,7.86h-6.1l12.75-33.75h5.26l12.77,33.75h-6.12L210.84,134.9z M199.41,130.18h9.78l-4.89-14
			L199.41,130.18z"/>
		<path d="M245.15,113.74h-10.53v29.03h-5.82v-29.03h-10.43v-4.73h26.78V113.74z"/>
		<path d="M265.69,134.9h-13.08l-2.74,7.86h-6.1l12.75-33.75h5.26l12.77,33.75h-6.12L265.69,134.9z M254.26,130.18h9.78l-4.89-14
			L254.26,130.18z"/>
		<path d="M278.4,142.76v-33.75h11.57c1.82,0,3.46,0.18,4.92,0.54s2.68,0.92,3.69,1.66c1,0.74,1.77,1.69,2.31,2.84
			s0.8,2.52,0.8,4.09c0,1.55-0.42,2.94-1.25,4.17c-0.83,1.24-2.06,2.2-3.66,2.88c0.97,0.26,1.82,0.65,2.54,1.15
			c0.72,0.5,1.31,1.09,1.79,1.77c0.47,0.68,0.82,1.43,1.05,2.25c0.23,0.82,0.35,1.67,0.35,2.55c0,1.62-0.27,3.05-0.8,4.28
			c-0.53,1.23-1.31,2.26-2.32,3.08c-1.01,0.83-2.24,1.45-3.69,1.87s-3.08,0.63-4.9,0.63H278.4z M284.26,123.22h5.75
			c1.82,0,3.25-0.41,4.28-1.24c1.03-0.83,1.54-2,1.54-3.51c0-1.67-0.48-2.88-1.43-3.62c-0.95-0.74-2.43-1.11-4.44-1.11h-5.7V123.22z
			 M284.26,127.53v10.55h6.51c0.96,0,1.8-0.12,2.54-0.37c0.73-0.25,1.35-0.6,1.84-1.05c0.49-0.46,0.87-1,1.11-1.63
			c0.25-0.63,0.37-1.34,0.37-2.11c0-1.67-0.44-2.98-1.32-3.94s-2.31-1.44-4.29-1.44H284.26z"/>
		<path d="M327.24,134.9h-13.08l-2.74,7.86h-6.1l12.75-33.75h5.26l12.77,33.75H330L327.24,134.9z M315.81,130.18h9.78l-4.89-14
			L315.81,130.18z"/>
		<path d="M357.59,134.07c0-0.68-0.1-1.29-0.3-1.82c-0.2-0.53-0.57-1.02-1.1-1.47s-1.27-0.88-2.2-1.29s-2.14-0.84-3.61-1.29
			c-1.61-0.48-3.09-1.03-4.45-1.65c-1.36-0.62-2.53-1.34-3.51-2.16s-1.75-1.76-2.31-2.83s-0.83-2.29-0.83-3.66
			c0-1.36,0.29-2.61,0.87-3.76c0.58-1.14,1.39-2.13,2.45-2.97c1.05-0.83,2.31-1.48,3.78-1.95s3.09-0.7,4.87-0.7
			c1.9,0,3.61,0.27,5.12,0.82c1.51,0.55,2.79,1.29,3.84,2.24c1.04,0.94,1.84,2.04,2.4,3.28s0.83,2.57,0.83,3.98h-5.84
			c0-0.82-0.13-1.57-0.38-2.26c-0.25-0.69-0.64-1.28-1.17-1.79s-1.19-0.89-1.99-1.17c-0.8-0.28-1.75-0.42-2.85-0.42
			c-1.04,0-1.93,0.12-2.69,0.35c-0.76,0.23-1.39,0.56-1.89,0.97c-0.5,0.42-0.88,0.91-1.11,1.48c-0.24,0.57-0.36,1.19-0.36,1.85
			c0,1.25,0.59,2.29,1.77,3.13s2.99,1.61,5.41,2.32c1.9,0.56,3.55,1.17,4.94,1.85c1.39,0.68,2.54,1.45,3.46,2.31
			c0.92,0.86,1.6,1.82,2.05,2.9c0.45,1.07,0.67,2.28,0.67,3.63c0,1.42-0.28,2.7-0.85,3.84s-1.37,2.1-2.41,2.9
			c-1.04,0.8-2.31,1.41-3.79,1.83c-1.48,0.42-3.14,0.64-4.96,0.64c-1.62,0-3.22-0.22-4.8-0.66c-1.58-0.44-2.99-1.1-4.24-1.99
			s-2.26-2-3.03-3.33c-0.76-1.33-1.15-2.89-1.15-4.68h5.87c0,1.07,0.19,1.98,0.57,2.75c0.38,0.76,0.89,1.39,1.55,1.88
			c0.66,0.49,1.43,0.84,2.33,1.07c0.9,0.22,1.86,0.34,2.9,0.34c2.04,0,3.57-0.41,4.6-1.24
			C357.08,136.52,357.59,135.43,357.59,134.07z"/>
		<path d="M388.33,127.69h-13.86v10.39h16.21v4.68H368.6v-33.75h21.91v4.73h-16.04v9.32h13.86V127.69z"/>
	</g>
</g>
</svg>
