<svg xmlns="http://www.w3.org/2000/svg" viewBox="0 0 104.28 34.97"><defs><style>.cls-1{fill:#316192;}.cls-2{fill:#1a1a1a;}.cls-3{fill:#fff;}</style></defs><title>postgre_SQL_logo</title><g id="Layer_2" data-name="Layer 2"><g id="Layer_1-2" data-name="Layer 1"><path class="cls-1" d="M83.9,16.49a14.4,14.4,0,0,0-4-1.08,4.15,4.15,0,0,1-1.9-.73A1.79,1.79,0,0,1,78.63,12a5.24,5.24,0,0,1,3.76.08A2.38,2.38,0,0,1,83.53,14h1a2.89,2.89,0,0,0-.81-2.16,4.66,4.66,0,0,0-3.22-.94,5.71,5.71,0,0,0-3,.64c-1.33.86-1.29,3.61.2,4.24s3.27.7,4.88,1.2a1.54,1.54,0,0,1,1,.78,2,2,0,0,1-.86,2.59,5.51,5.51,0,0,1-4.09-.11,2.66,2.66,0,0,1-1.3-2.32c-.36,0-.72,0-1.07,0a3.5,3.5,0,0,0,.87,2.47,5.18,5.18,0,0,0,3.58,1.08A5.22,5.22,0,0,0,84,20.61C85.17,19.69,85.22,17.25,83.9,16.49Z"/><path class="cls-1" d="M95.86,17.84A6.17,6.17,0,0,0,95,12.73a4.88,4.88,0,0,0-3.46-1.82,6.57,6.57,0,0,0-4,.71,4.66,4.66,0,0,0-2.15,3,6.39,6.39,0,0,0,.45,4.27A4.77,4.77,0,0,0,89,21.29a8.19,8.19,0,0,0,3.52,0c.41-.07.79-.36,1.21-.36.54.35,1,.82,1.54,1.21.23-.23.46-.47.68-.72-.49-.42-1-.81-1.5-1.22A5.09,5.09,0,0,0,95.86,17.84ZM94.2,19a4.61,4.61,0,0,1-7,0,5.3,5.3,0,0,1-.67-4.52,3.92,3.92,0,0,1,2.71-2.69,4.71,4.71,0,0,1,4.44.9C95.27,14.18,95.41,17.2,94.2,19Z"/><path class="cls-1" d="M97.8,20.36c0-3.09,0-6.18,0-9.27l-1,0V21.21c2.5,0,5,0,7.51,0,0-.27,0-.55,0-.82C102.12,20.34,100,20.4,97.8,20.36Z"/><path class="cls-2" d="M48.44,20.28a2.31,2.31,0,0,1-.36.25A2.31,2.31,0,0,0,48.44,20.28Z"/><path class="cls-2" d="M44.92,20.83a3,3,0,0,1-.32-.12A3,3,0,0,0,44.92,20.83Z"/><path class="cls-2" d="M44.15,20.44a2,2,0,0,1-.4-.36A2,2,0,0,0,44.15,20.44Z"/><path class="cls-2" d="M44.6,20.71a3.07,3.07,0,0,1-.31-.17A3.07,3.07,0,0,0,44.6,20.71Z"/><path class="cls-2" d="M43.13,18.79c0-.12,0-.24-.05-.36C43.09,18.55,43.11,18.67,43.13,18.79Z"/><path class="cls-2" d="M45.25,20.92c-.11,0-.22-.05-.33-.09C45,20.87,45.14,20.89,45.25,20.92Z"/><path class="cls-2" d="M43.13,18.79a3.86,3.86,0,0,0,.22.68,2.47,2.47,0,0,0,.29.47,2.47,2.47,0,0,1-.29-.47A3.86,3.86,0,0,1,43.13,18.79Z"/><path class="cls-2" d="M43.06,18.25v0Z"/><path class="cls-2" d="M48.44,20.28a2.61,2.61,0,0,0,.32-.34,3.3,3.3,0,0,0,.57-1.86,3.3,3.3,0,0,1-.57,1.86A2.61,2.61,0,0,1,48.44,20.28Z"/><path class="cls-2" d="M42.61,13a2.43,2.43,0,0,0-1.84-.63c-1.4,0-2.8,0-4.2,0V20.8h.75c0-1.19,0-2.39,0-3.58,1.2,0,2.4,0,3.59,0a2.36,2.36,0,0,0,2.22-1.48A2.79,2.79,0,0,0,42.61,13Zm-.38,2.6a1.64,1.64,0,0,1-1.59,1c-1.11,0-2.21,0-3.31,0,0-1.18,0-2.35,0-3.52h3.19a1.84,1.84,0,0,1,1.52.59A2.26,2.26,0,0,1,42.23,15.58Z"/><path class="cls-2" d="M58.59,15.84c0-.19,0-.39,0-.58H57.26V13.45h-.77c0,.6,0,1.2,0,1.8-.33,0-.65,0-1,0v.57h1c0,1.28,0,2.55,0,3.83a1.08,1.08,0,0,0,.41,1,2.69,2.69,0,0,0,1.68.17v-.56a2,2,0,0,1-1.1-.1c-.24-.16-.22-.51-.22-.78,0-1.18,0-2.36,0-3.55Z"/><path class="cls-2" d="M43.06,18.07c0-.12,0-.24,0-.36C43.06,17.83,43.06,18,43.06,18.07Z"/><path class="cls-2" d="M43.57,16.23a2.43,2.43,0,0,1,.2-.25A2.43,2.43,0,0,0,43.57,16.23Z"/><path class="cls-2" d="M43.57,16.23a2.38,2.38,0,0,0-.25.44,3.68,3.68,0,0,0-.25,1,3.68,3.68,0,0,1,.25-1A2.38,2.38,0,0,1,43.57,16.23Z"/><path class="cls-2" d="M48.71,16.08c.06.08.11.16.16.24C48.82,16.24,48.77,16.16,48.71,16.08Z"/><path class="cls-2" d="M49.33,18.08c0-.11,0-.21,0-.31C49.32,17.87,49.33,18,49.33,18.08Z"/><path class="cls-2" d="M49,16.58a3.6,3.6,0,0,1,.31,1.19A3.6,3.6,0,0,0,49,16.58Z"/><path class="cls-2" d="M49,16.58a1.65,1.65,0,0,0-.14-.26c0-.08-.1-.16-.16-.24a2.07,2.07,0,0,0-.54-.48,4.08,4.08,0,0,0-2.9-.44,2.76,2.76,0,0,0-1.5.82,2.43,2.43,0,0,0-.2.25,2.38,2.38,0,0,0-.25.44,3.68,3.68,0,0,0-.25,1c0,.12,0,.24,0,.36v.18c0,.06,0,.13,0,.18s0,.24.05.36a3.86,3.86,0,0,0,.22.68,2.47,2.47,0,0,0,.29.47.76.76,0,0,0,.11.14,2,2,0,0,0,.4.36l.14.1a3.07,3.07,0,0,0,.31.17,3,3,0,0,0,.32.12c.11,0,.22.06.33.09l.33,0a4.09,4.09,0,0,0,2.5-.43,2.31,2.31,0,0,0,.36-.25,2.61,2.61,0,0,0,.32-.34,3.3,3.3,0,0,0,.57-1.86c0-.11,0-.21,0-.31A3.6,3.6,0,0,0,49,16.58Zm-1,3.1a2.24,2.24,0,0,1-1.66.72,2.4,2.4,0,0,1-1.89-.61A2.8,2.8,0,0,1,44,17.13a2,2,0,0,1,1.66-1.41,3,3,0,0,1,2.09.39,2.08,2.08,0,0,1,.78,1.55A2.69,2.69,0,0,1,48,19.68Z"/><path class="cls-2" d="M54.06,17.89c-.94-.23-1.9-.2-2.83-.46a.78.78,0,0,1-.6-.78,1,1,0,0,1,1-.93,3.43,3.43,0,0,1,2.12.19,1.26,1.26,0,0,1,.57,1l.81,0a1.8,1.8,0,0,0-.6-1.31,3.75,3.75,0,0,0-2.44-.51,3.28,3.28,0,0,0-1.72.47,1.45,1.45,0,0,0,.14,2.3c1.13.47,2.39.35,3.54.72a.91.91,0,0,1,.08,1.52,3.8,3.8,0,0,1-2.53.22,1.27,1.27,0,0,1-1.09-1.25h-.84a2.09,2.09,0,0,0,.6,1.36,3.66,3.66,0,0,0,2.2.55,4,4,0,0,0,2.27-.48,1.53,1.53,0,0,0,.44-1.88A1.68,1.68,0,0,0,54.06,17.89Z"/><path class="cls-2" d="M65.17,15.27h-.74l0,.89a3.06,3.06,0,0,0-1.1-.87,4.24,4.24,0,0,0-2.42,0A2.39,2.39,0,0,0,59.13,17a3.5,3.5,0,0,0,.41,2.71,2.57,2.57,0,0,0,1.81,1,3.33,3.33,0,0,0,3.07-.93,3.68,3.68,0,0,1-.3,2.06,2.07,2.07,0,0,1-1.76.79,3.5,3.5,0,0,1-1.69-.29c-.35-.19-.47-.64-.63-1l-.75,0a1.91,1.91,0,0,0,.78,1.4,4.36,4.36,0,0,0,2.16.43,3.26,3.26,0,0,0,2.38-.78,2.68,2.68,0,0,0,.59-2C65.18,18.68,65.24,17,65.17,15.27ZM64,19.35a2.47,2.47,0,0,1-2.4.73A1.89,1.89,0,0,1,60,18.9a2.8,2.8,0,0,1,.12-2.2,2,2,0,0,1,1.42-.95,2.81,2.81,0,0,1,2.16.4A2.5,2.5,0,0,1,64,19.35Z"/><path class="cls-2" d="M69.31,15.1a3.84,3.84,0,0,0-1.78.22,2,2,0,0,0-.73.9c0-.31,0-.63,0-.95H66c0,1.84,0,3.69,0,5.53h.75c0-1,0-1.91,0-2.87a2.29,2.29,0,0,1,.7-1.8,2.6,2.6,0,0,1,1.81-.33Z"/><path class="cls-2" d="M75.45,18.19A3.46,3.46,0,0,0,74.74,16,3.21,3.21,0,0,0,72,15.1a2.8,2.8,0,0,0-2.44,1.37,3.25,3.25,0,0,0,.62,3.83,3.8,3.8,0,0,0,3.36.53A2.54,2.54,0,0,0,75.34,19h-.83a2,2,0,0,1-1.27,1.3,2.72,2.72,0,0,1-2.67-.57A2.46,2.46,0,0,1,70,18.21C71.81,18.18,73.63,18.21,75.45,18.19ZM70,17.68A2.39,2.39,0,0,1,71,16a2.49,2.49,0,0,1,3.29.56,2.13,2.13,0,0,1,.4,1.11C73.1,17.69,71.55,17.69,70,17.68Z"/><path class="cls-3" d="M20.24.59a13.16,13.16,0,0,0-4.47,0,9.76,9.76,0,0,0-2.44.88A15.58,15.58,0,0,0,5.71.68a6.69,6.69,0,0,0-4.44,3,10.68,10.68,0,0,0-1.21,6.5,49.49,49.49,0,0,0,1.6,7.34,25.52,25.52,0,0,0,2.48,6A5.06,5.06,0,0,0,6.9,26a3.08,3.08,0,0,0,2.77-.68,3.8,3.8,0,0,0,1.36.88,6.68,6.68,0,0,0,4.58-.08,18.81,18.81,0,0,0,.74,6A4.26,4.26,0,0,0,18,34.38a4.15,4.15,0,0,0,3.06.51A7.71,7.71,0,0,0,23.78,34a5.14,5.14,0,0,0,1.94-2.26,18,18,0,0,0,1.1-6.56,8.35,8.35,0,0,0,6.06-1.82A2.29,2.29,0,0,0,33.83,21,1.79,1.79,0,0,0,32,19.77c-.83.06-1.63.32-2.46.32a32.78,32.78,0,0,0,4-10.37,10.84,10.84,0,0,0,0-4.64A5.19,5.19,0,0,0,32,2.88,10,10,0,0,0,26.73.21,14.68,14.68,0,0,0,20.24.59Z"/><path class="cls-3" d="M20.23,1.58a12.91,12.91,0,0,1,7.13-.27A8.88,8.88,0,0,1,32.1,4.48a4,4,0,0,1,.61,2.24,15.69,15.69,0,0,1-.5,4.09,33.29,33.29,0,0,1-4.33,10,6.06,6.06,0,0,0,3.43,0c.47-.09,1.08-.21,1.43.2s0,1-.34,1.35A7.28,7.28,0,0,1,26.12,24c-.23,1.95-.46,3.91-.76,5.85a4.85,4.85,0,0,1-1.38,3A5.91,5.91,0,0,1,21.11,34a3.68,3.68,0,0,1-3-.68,4.69,4.69,0,0,1-1.48-3.06,50.26,50.26,0,0,1-.22-5.89A4.72,4.72,0,0,1,13,25.49a3.94,3.94,0,0,1-2.49-.84.83.83,0,0,1,.06-1.25,9.18,9.18,0,0,1,2.42-.8c.59-.17.9-.74,1.27-1.18a5.15,5.15,0,0,1-2-.53c-.94,1-1.85,2.05-2.74,3.1a2.45,2.45,0,0,1-2.1,1,3.38,3.38,0,0,1-2.16-1.58A19.29,19.29,0,0,1,3,18.54a49.8,49.8,0,0,1-2-8.36A9.55,9.55,0,0,1,2.23,3.89,6,6,0,0,1,6.66,1.45a15.58,15.58,0,0,1,6.82,1,8.16,8.16,0,0,1,6.19-.95A1.76,1.76,0,0,0,20.23,1.58Zm1.7.59c.44.31.95.53,1.4.84a11.88,11.88,0,0,1,4.19,5.06A4,4,0,0,1,28,9.92c0,1.33-.44,2.63-.31,4a12.51,12.51,0,0,1,.08,4.27,8.8,8.8,0,0,1-.54,1.4c0,.07,0,.21.05.27.17-.22.32-.45.47-.69a32.59,32.59,0,0,0,3.33-7.77,16.88,16.88,0,0,0,.68-4.52A3.16,3.16,0,0,0,31.24,5a7.86,7.86,0,0,0-3.35-2.45A10.62,10.62,0,0,0,21.93,2.17Zm-5.47.19a5.56,5.56,0,0,0-3.72,2.17,10.53,10.53,0,0,0-1.88,5.57,6,6,0,0,1,3.92-.76,2.42,2.42,0,0,1,1.73,1.85,12.31,12.31,0,0,1,.23,5.33c-.3,1.42-1.17,2.65-1.46,4.08a2.51,2.51,0,0,1,1.08.24,2.06,2.06,0,0,1,1,1.91c-.05,1.94-.05,3.88.06,5.82a12.9,12.9,0,0,0,.29,2.4,2.77,2.77,0,0,0,2,2.06,5.33,5.33,0,0,0,3.15-.63,3.33,3.33,0,0,0,1.52-2.54c.34-2.06.57-4.15.81-6.23a5.43,5.43,0,0,1,.37-2.23,2.35,2.35,0,0,1,1.12-.84,10.23,10.23,0,0,1-1-1.38c-1-2.13-2.43-4.15-2.86-6.51a3,3,0,0,1,.75-2.88,4.63,4.63,0,0,1,3.3-.7,10.81,10.81,0,0,0-3.52-4.86A9.29,9.29,0,0,0,16.46,2.36Zm-10.3.16A4.76,4.76,0,0,0,2.85,4.75,9,9,0,0,0,2,10.06a47.43,47.43,0,0,0,1.55,7,23.48,23.48,0,0,0,2.31,5.58A3.21,3.21,0,0,0,7.41,24c.61.13,1.1-.38,1.45-.8.82-1,1.7-1.93,2.54-2.91a5.21,5.21,0,0,1-1.67-4.47A18.86,18.86,0,0,0,9.86,12a14.17,14.17,0,0,1,.69-5.37,9.36,9.36,0,0,1,2-3.48A13.42,13.42,0,0,0,6.16,2.52Zm18.09,8a2.08,2.08,0,0,0-.46,2.08c.45,2.21,1.74,4.1,2.73,6.08.75-1.49.29-3.19.17-4.76A29.79,29.79,0,0,1,27,10.11,4.12,4.12,0,0,0,24.25,10.49Zm-13.43.81c0,1.06.1,2.13,0,3.19a10.67,10.67,0,0,0-.1,2.82,3.77,3.77,0,0,0,3.53,3.11A19.67,19.67,0,0,1,15.2,18a9.63,9.63,0,0,0,.33-6.65,1.47,1.47,0,0,0-1.35-1.09A5.84,5.84,0,0,0,10.82,11.3ZM26.51,21.76a1.55,1.55,0,0,0-.3,1.19,5.08,5.08,0,0,0,2.23.13,5.15,5.15,0,0,0,3.08-1.3c-1.35.16-2.82.49-4.09-.18C27.14,21.39,26.77,21.57,26.51,21.76ZM13.75,23.31a23.08,23.08,0,0,1-2.44.78,4,4,0,0,0,4.86-1,.92.92,0,0,0-.72-1.52C14.77,22.06,14.48,22.92,13.75,23.31Z"/><path class="cls-3" d="M24.54,10.78a1.6,1.6,0,0,1,1.57-.11.91.91,0,0,1-1.32.75C24.57,11.32,24.28,11,24.54,10.78Z"/><path class="cls-3" d="M13.61,10.82a1.6,1.6,0,0,1,1.42.25c.27.22,0,.58-.21.71a1,1,0,0,1-1.49-.62C13.3,11,13.46,10.87,13.61,10.82Z"/><path class="cls-1" d="M21.93,2.17a10.62,10.62,0,0,1,6,.35A7.86,7.86,0,0,1,31.24,5a3.16,3.16,0,0,1,.5,1.87,16.88,16.88,0,0,1-.68,4.52,32.59,32.59,0,0,1-3.33,7.77c-.15.24-.3.47-.47.69,0-.06,0-.2-.05-.27a8.8,8.8,0,0,0,.54-1.4,12.51,12.51,0,0,0-.08-4.27c-.13-1.33.32-2.63.31-4a4,4,0,0,0-.46-1.85A11.88,11.88,0,0,0,23.33,3C22.88,2.7,22.37,2.48,21.93,2.17Z"/><path class="cls-1" d="M16.46,2.36a9.29,9.29,0,0,1,6.88,1.87,10.81,10.81,0,0,1,3.52,4.86,4.63,4.63,0,0,0-3.3.7,3,3,0,0,0-.75,2.88c.43,2.36,1.83,4.38,2.86,6.51a10.23,10.23,0,0,0,1,1.38,2.35,2.35,0,0,0-1.12.84,5.43,5.43,0,0,0-.37,2.23c-.24,2.08-.47,4.17-.81,6.23a3.33,3.33,0,0,1-1.52,2.54,5.33,5.33,0,0,1-3.15.63,2.77,2.77,0,0,1-2-2.06,12.9,12.9,0,0,1-.29-2.4c-.11-1.94-.11-3.88-.06-5.82a2.06,2.06,0,0,0-1-1.91,2.51,2.51,0,0,0-1.08-.24c.29-1.43,1.16-2.66,1.46-4.08a12.31,12.31,0,0,0-.23-5.33,2.42,2.42,0,0,0-1.73-1.85,6,6,0,0,0-3.92.76,10.53,10.53,0,0,1,1.88-5.57A5.56,5.56,0,0,1,16.46,2.36Z"/><path class="cls-1" d="M6.16,2.52a13.42,13.42,0,0,1,6.43.65,9.36,9.36,0,0,0-2,3.48A14.17,14.17,0,0,0,9.86,12a18.86,18.86,0,0,1-.13,3.83,5.21,5.21,0,0,0,1.67,4.47c-.84,1-1.72,1.91-2.54,2.91-.35.42-.84.93-1.45.8a3.21,3.21,0,0,1-1.56-1.44A23.48,23.48,0,0,1,3.54,17a47.43,47.43,0,0,1-1.55-7,9,9,0,0,1,.86-5.31A4.76,4.76,0,0,1,6.16,2.52Z"/><path class="cls-1" d="M24.25,10.49A4.12,4.12,0,0,1,27,10.11a29.79,29.79,0,0,0-.31,3.78c.12,1.57.58,3.27-.17,4.76-1-2-2.28-3.87-2.73-6.08A2.08,2.08,0,0,1,24.25,10.49Zm.29.29c-.26.22,0,.54.25.64a.91.91,0,0,0,1.32-.75A1.6,1.6,0,0,0,24.54,10.78Z"/><path class="cls-1" d="M10.82,11.3a5.84,5.84,0,0,1,3.36-1.08,1.47,1.47,0,0,1,1.35,1.09A9.63,9.63,0,0,1,15.2,18a19.67,19.67,0,0,0-.92,2.46,3.77,3.77,0,0,1-3.53-3.11,10.67,10.67,0,0,1,.1-2.82C10.92,13.43,10.84,12.36,10.82,11.3Zm2.79-.48c-.15,0-.31.16-.28.34a1,1,0,0,0,1.49.62c.23-.13.48-.49.21-.71A1.6,1.6,0,0,0,13.61,10.82Z"/><path class="cls-1" d="M26.51,21.76c.26-.19.63-.37.92-.16,1.27.67,2.74.34,4.09.18a5.15,5.15,0,0,1-3.08,1.3A5.08,5.08,0,0,1,26.21,23,1.55,1.55,0,0,1,26.51,21.76Z"/><path class="cls-1" d="M13.75,23.31c.73-.39,1-1.25,1.7-1.7a.92.92,0,0,1,.72,1.52,4,4,0,0,1-4.86,1A23.08,23.08,0,0,0,13.75,23.31Z"/><path d="M20.24.59A14.68,14.68,0,0,1,26.73.21,10,10,0,0,1,32,2.88a5.19,5.19,0,0,1,1.5,2.2,10.84,10.84,0,0,1,0,4.64,32.78,32.78,0,0,1-4,10.37c.83,0,1.63-.26,2.46-.32A1.79,1.79,0,0,1,33.83,21a2.29,2.29,0,0,1-.95,2.27,8.35,8.35,0,0,1-6.06,1.82,18,18,0,0,1-1.1,6.56A5.14,5.14,0,0,1,23.78,34a7.71,7.71,0,0,1-2.73.94A4.15,4.15,0,0,1,18,34.38a4.26,4.26,0,0,1-1.64-2.32,18.81,18.81,0,0,1-.74-6,6.68,6.68,0,0,1-4.58.08,3.8,3.8,0,0,1-1.36-.88A3.08,3.08,0,0,1,6.9,26a5.06,5.06,0,0,1-2.76-2.41,25.52,25.52,0,0,1-2.48-6,49.49,49.49,0,0,1-1.6-7.34,10.68,10.68,0,0,1,1.21-6.5,6.69,6.69,0,0,1,4.44-3,15.58,15.58,0,0,1,7.62.75A9.76,9.76,0,0,1,15.77.55,13.16,13.16,0,0,1,20.24.59Zm0,1a1.76,1.76,0,0,1-.56-.07,8.16,8.16,0,0,0-6.19,1,15.58,15.58,0,0,0-6.82-1A6,6,0,0,0,2.23,3.89,9.55,9.55,0,0,0,1,10.18a49.8,49.8,0,0,0,2,8.36,19.29,19.29,0,0,0,2.25,4.9A3.38,3.38,0,0,0,7.4,25a2.45,2.45,0,0,0,2.1-1c.89-1,1.8-2.09,2.74-3.1a5.15,5.15,0,0,0,2,.53c-.37.44-.68,1-1.27,1.18a9.18,9.18,0,0,0-2.42.8.83.83,0,0,0-.06,1.25,3.94,3.94,0,0,0,2.49.84,4.72,4.72,0,0,0,3.43-1.13,50.26,50.26,0,0,0,.22,5.89,4.69,4.69,0,0,0,1.48,3.06,3.68,3.68,0,0,0,3,.68A5.91,5.91,0,0,0,24,32.79a4.85,4.85,0,0,0,1.38-3c.3-1.94.53-3.9.76-5.85a7.28,7.28,0,0,0,6.28-1.64c.35-.33.68-.9.34-1.35s-1-.29-1.43-.2a6.06,6.06,0,0,1-3.43,0,33.29,33.29,0,0,0,4.33-10,15.69,15.69,0,0,0,.5-4.09,4,4,0,0,0-.61-2.24,8.88,8.88,0,0,0-4.74-3.17A12.91,12.91,0,0,0,20.23,1.58Z"/></g></g></svg>