<?xml version="1.0" encoding="UTF-8" standalone="no"?>
<svg
   xmlns:dc="http://purl.org/dc/elements/1.1/"
   xmlns:cc="http://creativecommons.org/ns#"
   xmlns:rdf="http://www.w3.org/1999/02/22-rdf-syntax-ns#"
   xmlns:svg="http://www.w3.org/2000/svg"
   xmlns="http://www.w3.org/2000/svg"
   xmlns:sodipodi="http://sodipodi.sourceforge.net/DTD/sodipodi-0.dtd"
   xmlns:inkscape="http://www.inkscape.org/namespaces/inkscape"
   width="448.01596"
   height="174.64461"
   viewBox="0 0 264.90306 103.27545"
   version="1.1"
   id="svg873"
   sodipodi:docname="microsoft-sql-server_50pc.svg"
   inkscape:version="0.92.4 (5da689c313, 2019-01-14)">
  <metadata
     id="metadata879">
    <rdf:RDF>
      <cc:Work
         rdf:about="">
        <dc:format>image/svg+xml</dc:format>
        <dc:type
           rdf:resource="http://purl.org/dc/dcmitype/StillImage" />
        <dc:title></dc:title>
      </cc:Work>
    </rdf:RDF>
  </metadata>
  <defs
     id="defs877" />
  <sodipodi:namedview
     pagecolor="#ffffff"
     bordercolor="#666666"
     borderopacity="1"
     objecttolerance="10"
     gridtolerance="10"
     guidetolerance="10"
     inkscape:pageopacity="0"
     inkscape:pageshadow="2"
     inkscape:window-width="1837"
     inkscape:window-height="1057"
     id="namedview875"
     showgrid="false"
     fit-margin-top="0"
     fit-margin-left="20"
     fit-margin-right="0"
     fit-margin-bottom="10"
     inkscape:zoom="0.43938644"
     inkscape:cx="-44.414384"
     inkscape:cy="-327.3933"
     inkscape:window-x="75"
     inkscape:window-y="-8"
     inkscape:window-maximized="1"
     inkscape:current-layer="svg873" />
  <g
     id="g895"
     transform="matrix(0.1990656,0,0,0.1990656,-19.786802,-29.238905)">
    <g
       id="g869"
       transform="matrix(0.3414,0,0,0.3414,-40.77995,97.240203)">
      <linearGradient
         gradientTransform="matrix(0.1234,0,0,-0.1234,1158.33,1550.273)"
         y2="1420.3311"
         x2="-2061.249"
         y1="923.573"
         x1="-2901.9519"
         gradientUnits="userSpaceOnUse"
         id="a">
        <stop
           id="stop848"
           stop-color="#909ca9"
           offset="0" />
        <stop
           id="stop850"
           stop-color="#ededee"
           offset="1" />
      </linearGradient>
      <path
         inkscape:connector-curvature="0"
         style="fill:url(#a)"
         id="path853"
         d="m 1410.773,814.195 -286.9,93.683 -249.599,110.161 -69.829,18.435 c -17.784,16.916 -36.431,34.049 -56.599,51.397 -22.119,19.082 -42.72,36.433 -58.553,49.008 -17.564,13.88 -43.587,39.902 -56.814,56.38 -19.735,24.721 -35.348,50.96 -42.071,71.13 -11.928,36.433 -6.07,73.297 16.916,107.346 29.492,43.369 88.261,87.606 156.785,117.749 34.916,15.4 93.683,35.132 137.92,46.19 73.512,18.651 215.771,38.819 294.054,41.857 15.828,0.65 37.082,0.65 37.947,0 1.737,-1.088 13.881,-24.289 27.979,-53.129 48.142,-98.238 82.838,-190.402 101.703,-269.119 11.276,-47.706 20.166,-111.246 26.019,-186.492 1.521,-21.036 2.169,-91.514 0.868,-115.37 -1.953,-39.033 -5.423,-70.692 -10.84,-101.703 -0.868,-4.555 -1.088,-8.676 -0.652,-8.892 0.865,-0.65 3.467,-1.517 38.815,-11.712 l -7.153,-16.912 v -0.005 0 z m -65.49,38.386 c 2.602,0 9.539,66.573 11.273,108.646 0.436,8.89 0.216,14.745 -0.216,14.745 -1.733,0 -36.649,-20.599 -61.583,-36.212 -21.687,-13.663 -62.888,-40.988 -69.393,-46.192 -2.173,-1.517 -1.957,-1.733 15.828,-7.807 30.14,-10.194 101.706,-33.18 104.091,-33.18 z m -146.161,48.143 c 1.953,0 6.937,2.816 18.865,10.191 44.671,27.974 105.393,61.805 131.415,73.083 8.022,3.469 8.887,2.166 -9.542,14.746 -39.468,26.889 -88.697,53.344 -148.983,80.018 -10.624,4.771 -19.514,8.456 -19.73,8.456 -0.432,0 0.865,-5.418 2.598,-11.925 14.53,-54.001 22.772,-108.647 23.208,-152.452 0.216,-21.687 0.216,-21.687 2.169,-22.334 -0.436,0.217 -0.22,0.217 0,0.217 z m -30.142,11.492 c 1.297,1.299 0.432,49.877 -1.304,63.104 -3.903,31.662 -9.975,61.153 -19.947,94.335 -2.386,8.018 -4.558,14.745 -4.987,15.177 -0.872,1.083 -30.581,-27.975 -40.339,-39.251 -16.916,-19.518 -30.141,-39.035 -39.9,-58.117 -4.988,-9.759 -12.793,-28.84 -12.144,-29.492 3.469,-2.385 117.753,-46.622 118.621,-45.756 z m -141.826,55.731 c 0.216,0 0.432,0 0.652,0.216 0.432,0.434 1.953,3.905 3.254,7.807 6.937,18.867 22.548,46.624 35.997,64.407 14.746,19.518 34.048,40.334 50.091,53.996 5.207,4.337 9.975,8.456 10.624,9.108 1.304,1.302 1.737,1.083 -33.612,14.53 -40.981,15.613 -85.656,31.226 -136.835,47.706 a 6825.474,6825.474 0 0 0 -36.643,11.928 c -1.955,0.652 -1.303,-0.434 4.335,-9.323 25.371,-39.686 63.97,-117.536 85.657,-172.618 3.687,-9.542 7.373,-19.082 8.025,-21.251 0.868,-3.038 1.95,-4.121 4.768,-5.64 1.518,-0.43 3.038,-0.866 3.687,-0.866 z m -43.367,17.999 c 0.649,0.436 -10.411,23.637 -21.254,44.889 -21.036,40.985 -44.022,81.323 -74.815,130.331 -5.204,8.456 -10.19,16.265 -10.842,17.132 -1.083,1.519 -1.519,1.083 -4.988,-5.638 -7.373,-14.53 -13.447,-33.181 -16.699,-50.313 -3.254,-16.916 -2.602,-46.406 1.086,-64.621 2.816,-13.444 2.602,-13.227 9.107,-16.481 27.757,-14.095 117.537,-56.166 118.405,-55.299 z m 374.073,15.182 v 9.107 c 0,48.359 -5.204,114.716 -12.797,163.077 -1.301,8.456 -2.389,15.393 -2.602,15.613 0,0 -6.288,-1.733 -13.661,-3.905 -32.527,-10.193 -67.875,-25.156 -99.754,-42.718 -21.038,-11.494 -51.612,-30.363 -50.743,-31.231 0.213,-0.215 9.323,-4.986 19.947,-10.625 42.509,-22.118 83.274,-45.972 118.622,-69.609 13.229,-8.892 33.176,-23.202 37.518,-27.107 z m -537.802,64.185 c 0.867,0 0.65,1.735 -0.651,9.542 -0.868,5.64 -1.951,16.049 -2.382,23.202 -1.739,31.662 3.469,55.084 19.082,87.177 4.337,8.892 7.809,16.265 7.589,16.48 -1.519,1.303 -145.074,43.375 -190.183,55.734 -13.444,3.685 -25.152,6.939 -26.024,7.153 -1.515,0.436 -1.733,0.22 -1.083,-3.47 4.987,-31.875 29.276,-73.512 63.104,-108.644 22.554,-23.419 40.554,-37.08 71.347,-54.648 22.119,-12.575 56.165,-31.439 58.767,-32.309 0.002,-0.217 0.218,-0.217 0.434,-0.217 z m 338.295,60.503 c 0.216,-0.216 5.42,2.605 11.708,6.29 46.408,26.891 111.03,51.83 166.108,64.623 l 4.991,1.086 -6.941,3.899 c -28.84,16.049 -123.606,55.515 -220.538,91.732 -14.098,5.202 -27.975,10.409 -30.581,11.492 -2.602,1.083 -4.988,1.735 -4.988,1.519 0,-0.22 3.906,-7.809 8.89,-17.132 27.107,-50.744 54.433,-112.547 68.311,-155.485 1.739,-4.12 2.82,-7.805 3.04,-8.024 z m -34.48,11.278 c 0.22,0.221 -1.517,4.771 -3.687,9.975 -18.865,45.756 -43.59,95.636 -75.249,151.583 -8.022,14.314 -14.746,25.808 -14.966,25.808 -0.213,0 -6.721,-3.906 -14.527,-8.676 -45.976,-28.192 -86.743,-62.888 -113.414,-96.501 l -3.905,-4.771 19.732,-5.422 c 70.696,-19.298 130.762,-40.116 190.4,-65.704 8.459,-3.471 15.4,-6.292 15.616,-6.292 z m 214.253,74.815 c 0,0 0.217,0.217 0,0 0.216,4.988 -10.844,49.661 -19.953,81.969 -7.589,27.107 -14.098,48.361 -26.022,85.874 -5.204,16.485 -9.755,30.143 -9.975,30.143 -0.216,0 -1.517,-0.216 -2.818,-0.647 -64.405,-11.714 -122.089,-27.977 -176.303,-49.661 -15.182,-6.074 -36.866,-15.833 -38.167,-16.916 -0.432,-0.438 12.58,-6.506 29.06,-13.663 98.669,-43.154 201.024,-92.164 236.153,-113.196 4.119,-2.603 7.373,-3.903 8.025,-3.903 z m -494.646,16.916 c 0.434,0.432 -27.107,40.118 -65.709,94.114 -13.444,18.867 -29.057,40.985 -34.911,49.225 -5.856,8.241 -14.746,21.253 -19.734,29.06 l -9.112,14.096 -9.759,-8.24 c -11.494,-9.544 -31.442,-29.927 -40.333,-41.204 -18.651,-23.201 -31.226,-47.706 -36.214,-70.04 -2.386,-10.411 -2.386,-15.618 -0.22,-16.265 3.252,-0.867 61.153,-14.53 115.37,-27.11 30.143,-6.937 65.054,-15.177 77.632,-18.213 12.579,-3.041 22.774,-5.423 22.99,-5.423 z m 27.756,10.626 6.937,7.806 c 31.231,34.914 63.108,60.724 101.708,83.272 6.941,3.906 12.144,7.373 11.708,7.594 -1.514,1.083 -134.016,48.136 -195.385,69.389 -34.478,12.143 -62.888,21.901 -63.102,21.901 -0.216,0 -2.169,-1.299 -4.341,-2.818 l -3.901,-2.82 6.288,-9.106 c 20.383,-29.493 45.976,-61.803 101.707,-129.028 z m 173.053,123.822 c 0.213,-0.215 9.755,3.252 21.464,7.594 28.195,10.624 50.527,17.345 80.456,24.936 36.866,9.326 90.211,18.434 121.657,21.035 4.771,0.432 7.373,0.868 6.505,1.519 -1.521,0.868 -33.395,11.494 -56.816,18.867 -37.302,11.708 -151.149,45.32 -243.962,71.995 -17.132,4.987 -31.879,9.108 -32.746,9.323 -2.166,0.436 -9.325,-1.519 -9.325,-2.386 0,-0.431 5.204,-7.153 11.494,-14.527 31.225,-37.3 62.238,-78.935 88.044,-118.403 7.154,-10.846 13.229,-19.736 13.229,-19.953 z m -38.17,1.087 c 0.216,0.216 -15.179,24.936 -42.066,67.439 -11.496,17.999 -24.291,38.383 -28.846,45.54 -4.337,6.939 -10.842,17.784 -14.527,23.854 l -6.29,11.061 -3.252,-0.868 c -7.809,-2.169 -62.672,-21.471 -77.202,-27.325 -18,-7.157 -36.649,-15.829 -50.529,-23.202 -17.346,-9.326 -39.03,-23.206 -37.297,-23.637 0.433,-0.216 30.143,-8.243 65.922,-17.999 94.984,-25.809 147.678,-40.77 182.161,-51.612 6.29,-1.952 11.71,-3.471 11.926,-3.251 z m 269.985,63.318 h 0.216 c 0.868,2.171 -34.26,99.755 -47.06,130.547 -2.815,6.939 -3.896,8.677 -5.417,8.456 -3.687,-0.213 -54.646,-7.37 -85.66,-11.925 -53.994,-8.24 -144.641,-24.073 -167.409,-29.275 l -5.204,-1.083 32.307,-7.378 c 69.396,-15.613 102.791,-24.069 136.619,-34.478 42.722,-13.011 85.011,-29.276 127.729,-49.225 6.722,-3.037 12.361,-5.422 13.879,-5.639 z" />
      <linearGradient
         gradientTransform="matrix(0.1234,0,0,-0.1234,1158.33,1550.273)"
         y2="10288.81"
         x2="-2206.249"
         y1="10288.81"
         x1="-2882.7"
         gradientUnits="userSpaceOnUse"
         id="b">
        <stop
           id="stop855"
           stop-color="#939fab"
           offset="0" />
        <stop
           id="stop857"
           stop-color="#dcdee1"
           offset="1" />
      </linearGradient>
      <path
         inkscape:connector-curvature="0"
         style="fill:url(#b)"
         id="path860"
         d="m 1114.983,145.414 c -4.771,-0.647 -81.757,27.11 -131.415,47.275 -67.01,27.327 -119.052,53.351 -151.148,75.899 -11.925,8.461 -26.891,23.422 -29.273,29.276 -0.867,2.169 -1.303,4.771 -1.303,7.373 l 29.06,27.541 69.175,22.119 164.594,29.493 188.228,32.312 1.953,-16.264 c -0.649,0 -1.085,-0.216 -1.73,-0.216 l -24.728,-3.905 -4.984,-8.89 c -25.59,-45.107 -53.781,-101.056 -70.261,-138.789 -12.793,-29.276 -24.938,-63.102 -31.662,-87.391 -3.687,-14.746 -4.119,-15.613 -6.501,-15.829 v -0.005 h -0.01 z m -3.474,11.063 h 0.223 c 0.213,0.214 1.081,6.29 1.95,13.442 3.683,30.364 10.411,59.635 21.035,91.297 8.022,23.855 8.022,22.555 -1.301,19.734 -22.119,-6.07 -121.221,-23.202 -193,-33.177 -11.494,-1.519 -21.253,-3.036 -21.253,-3.252 -0.867,-0.867 51.827,-28.41 75.031,-39.25 29.709,-13.665 111.246,-47.711 117.315,-48.794 z m -209.047,97.15 8.461,2.816 c 45.97,15.616 161.551,37.736 225.31,42.94 7.154,0.651 13.229,1.303 13.442,1.303 0.216,0.216 -5.852,3.469 -13.661,7.154 -30.79,15.397 -64.621,34.264 -88.042,48.794 -6.937,4.335 -13.229,7.807 -14.094,7.807 -0.868,0 -5.42,-0.868 -10.191,-1.519 l -8.674,-1.303 -21.683,-21.253 c -38.167,-37.08 -68.094,-65.704 -79.588,-76.549 z m -8.671,6.721 30.576,38.168 c 16.696,21.035 33.611,41.635 37.301,46.187 3.683,4.557 6.721,8.245 6.505,8.461 -0.868,0.65 -44.236,-7.809 -67.226,-13.011 -23.637,-5.423 -33.395,-8.025 -47.924,-12.577 l -11.928,-3.905 v -3.038 c 0.216,-14.53 18.651,-36.214 49.877,-58.331 z m 259.791,52.046 c 0.869,0 1.95,1.951 4.552,7.806 7.373,16.263 30.364,60.07 35.997,68.526 1.74,2.822 4.771,3.038 -25.802,-1.95 -73.512,-11.93 -97.152,-15.829 -97.152,-16.263 0,-0.216 2.169,-1.735 4.988,-3.254 22.771,-12.575 45.756,-28.624 66.142,-45.756 4.988,-4.121 9.542,-8.024 10.407,-8.676 0.216,-0.433 0.652,-0.649 0.868,-0.433 z" />
      <radialGradient
         gradientUnits="userSpaceOnUse"
         gradientTransform="matrix(-0.1185,-0.0178,-0.036,0.237,-198.955,-1314.415)"
         r="898.12"
         cy="7277.7051"
         cx="-14217.448"
         id="c">
        <stop
           id="stop862"
           stop-color="#ee352c"
           offset="0" />
        <stop
           id="stop864"
           stop-color="#a91d22"
           offset="1" />
      </radialGradient>
      <path
         inkscape:connector-curvature="0"
         style="fill:url(#c)"
         id="path867"
         d="m 804.66,294.828 c 0,0 -4.768,7.593 -0.215,18.87 2.822,6.937 11.061,15.393 20.384,24.069 0,0 96.5,94.114 108.211,107.561 53.344,61.585 76.549,122.305 78.718,206.012 1.301,53.78 -8.894,101.054 -34.264,155.919 -45.106,98.453 -140.307,207.098 -287.117,327.67 l 21.472,-7.157 c 13.878,-10.411 32.745,-21.467 76.982,-45.756 102.137,-55.952 217.071,-107.346 358.028,-160.258 202.971,-76.335 536.715,-165.681 726.676,-194.736 l 19.737,-3.038 -3.038,-4.771 c -17.345,-26.891 -29.276,-43.587 -43.59,-61.369 -41.633,-51.612 -92.157,-93.463 -153.964,-128.161 -85.007,-47.489 -194.956,-84.571 -334.173,-112.112 -26.239,-5.207 -83.923,-15.181 -130.763,-22.337 -99.321,-15.393 -163.51,-26.021 -234.203,-38.165 -25.37,-4.339 -63.323,-10.843 -88.478,-16.263 -13.011,-2.822 -37.947,-8.676 -57.464,-15.398 -15.613,-6.075 -38.168,-12.147 -42.939,-30.58 z m 55.952,54.216 c 0.214,-0.214 3.683,1.083 8.24,2.602 8.24,2.816 18.865,6.07 31.446,9.542 a 1599.47,1599.47 0 0 0 28.624,7.589 c 13.011,3.251 23.852,6.288 24.068,6.288 1.521,1.519 23.424,71.558 30.797,98.449 2.815,10.195 4.988,18.867 4.771,18.867 -0.223,0.22 -2.605,-3.469 -5.423,-8.456 -25.373,-44.673 -65.491,-89.995 -111.899,-126.428 -6.069,-4.333 -10.624,-8.237 -10.624,-8.453 z m 106.692,29.492 c 1.085,0 5.856,0.651 11.708,1.951 36.866,8.24 103.008,20.818 145.293,27.975 7.157,1.083 12.797,2.387 12.797,2.818 0,0.436 -2.605,1.951 -5.859,3.688 -7.153,3.685 -35.997,20.815 -45.536,27.322 -24.073,16.047 -45.756,33.395 -61.371,49.008 -6.288,6.29 -11.712,11.494 -11.712,11.494 0,0 -1.297,-3.685 -2.386,-8.242 -7.802,-30.143 -24.069,-74.816 -38.815,-106.258 -2.386,-4.986 -4.339,-9.541 -4.339,-9.973 0,0.433 0,0.217 0.22,0.217 z m 187.795,35.781 c 1.301,0.432 3.47,7.806 7.806,24.069 8.025,31.446 11.712,66.576 10.411,99.321 -0.436,9.108 -0.868,17.564 -1.304,18.651 l -0.649,2.166 -11.276,-3.685 c -23.204,-7.373 -60.935,-18.435 -93.245,-27.541 -18.436,-4.988 -33.395,-9.542 -33.395,-9.975 0,-1.303 26.891,-28.192 38.383,-38.383 21.898,-19.303 81.316,-65.275 83.269,-64.623 z m 14.963,2.166 c 0.652,-0.647 89.779,14.746 130.331,22.554 30.145,5.854 73.948,14.963 76.549,16.049 1.301,0.432 -3.254,3.034 -17.784,9.539 -57.248,25.808 -99.754,49.008 -142.036,77.202 -11.06,7.373 -20.386,13.444 -20.602,13.444 -0.216,0 -0.433,-6.287 -0.433,-13.878 0,-41.201 -8.241,-82.838 -23.424,-117.968 -1.517,-3.47 -2.818,-6.722 -2.601,-6.942 z m 230.516,45.542 c 0.652,0.65 -2.169,18.217 -4.771,28.624 -7.806,32.312 -28.84,80.24 -54.643,125.343 -4.558,8.024 -8.677,14.53 -9.114,14.746 -0.429,0.216 -6.285,-3.038 -13.009,-6.941 -25.154,-14.746 -53.778,-28.624 -85.007,-41.637 -8.671,-3.685 -16.263,-6.723 -16.48,-7.153 -1.521,-1.303 68.308,-47.493 105.174,-69.612 29.276,-17.781 76.982,-44.239 77.85,-43.37 z m 16.48,2.601 c 1.953,0 41.421,10.844 62.019,16.916 50.963,15.181 109.512,36.648 147.679,53.996 l 15.828,7.159 -11.056,2.6 c -93.245,21.467 -173.049,46.192 -250.034,77.418 -6.289,2.602 -11.928,4.771 -12.357,4.771 -0.436,0 1.733,-4.987 4.552,-11.061 23.204,-49.225 38.167,-100.62 41.85,-144.427 0.221,-4.121 0.867,-7.372 1.519,-7.372 z m -392.938,90.213 c 0.649,-0.652 30.793,6.506 47.057,11.056 24.721,6.942 77.198,24.505 77.198,25.808 0,0.216 -5.853,5.204 -12.79,11.278 -28.408,23.637 -55.734,48.572 -88.481,80.234 -9.759,9.328 -17.997,16.917 -18.429,16.917 -0.436,0 -0.649,-1.304 -0.436,-3.038 4.987,-36.433 3.906,-83.272 -3.034,-130.763 -0.653,-6.074 -1.302,-11.276 -1.085,-11.492 z m 633.433,0.652 c 0.429,0.431 -13.881,22.984 -22.988,35.777 -13.009,18.649 -32.098,43.375 -75.252,97.588 -22.765,28.622 -48.358,60.936 -56.812,71.778 -8.678,10.842 -15.831,19.948 -16.051,19.948 -0.216,0 -3.031,-3.901 -6.069,-8.671 -24.289,-36.433 -53.349,-68.311 -87.829,-96.935 -6.505,-5.423 -13.658,-11.278 -16.044,-13.013 -2.386,-1.734 -4.339,-3.469 -4.339,-3.685 0,-0.649 36.862,-16.483 64.841,-27.757 49.01,-19.952 115.794,-43.805 165.892,-59.203 26.24,-8.239 54.215,-16.263 54.651,-15.827 z m 16.696,4.334 c 0.865,-0.215 6.072,2.387 12.361,6.07 52.697,30.143 104.305,68.962 145.077,108.864 11.492,11.278 39.9,40.77 39.464,40.986 0,0 -9.975,0.867 -21.683,1.733 -91.296,6.942 -208.178,26.239 -320.511,53.345 -7.589,1.733 -14.31,3.252 -14.746,3.252 -0.429,0 8.025,-8.456 18.653,-18.647 65.922,-63.538 96.067,-103.656 131.628,-175.22 4.986,-10.623 9.325,-19.731 9.757,-20.383 -0.216,0 -0.216,0 0,0 z m -482.936,49.446 c 3.038,0.647 31.229,13.88 52.48,24.503 19.517,9.755 48.794,25.372 50.311,26.671 0.216,0.216 -10.195,5.638 -22.984,11.928 -40.772,20.384 -75.684,39.682 -112.118,61.802 -10.408,6.29 -19.082,11.497 -19.298,11.497 -0.868,0 -0.652,-0.872 5.204,-11.497 19.518,-35.561 35.129,-78.065 44.023,-119.486 0.864,-3.252 1.733,-5.418 2.382,-5.418 z m -28.192,5.202 c 0.652,0.652 -6.721,27.323 -11.273,41.853 -8.894,27.541 -23.856,62.02 -38.383,88.043 -3.474,6.069 -8.677,14.961 -11.496,19.948 l -5.42,8.674 -12.144,-11.707 c -14.094,-13.663 -25.59,-22.12 -40.333,-29.712 -5.859,-3.033 -10.411,-5.638 -10.411,-6.069 0,-1.735 37.082,-35.347 65.49,-59.635 20.383,-17.566 63.321,-52.045 63.97,-51.395 z m 172.404,70.913 10.627,6.937 c 24.282,15.833 52.906,36.866 74.813,55.298 12.357,10.19 36.21,31.662 40.985,36.866 l 2.598,2.822 -17.561,4.986 c -99.321,27.538 -176.087,52.043 -265.649,85.007 -9.975,3.685 -18.433,6.721 -19.085,6.721 -1.297,0 -2.385,1.083 19.954,-19.519 57.251,-52.691 107.992,-110.812 145.726,-167.411 z m -45.324,11.276 c 0.432,0.432 -29.276,42.284 -47.06,65.922 -21.251,28.192 -58.985,75.465 -85.007,106.256 -10.84,12.797 -20.163,23.422 -20.599,23.64 -0.652,0.216 -0.868,-3.036 -0.868,-8.024 0,-26.242 -6.721,-54.216 -18.433,-78.068 -4.988,-9.975 -5.856,-12.361 -4.768,-13.444 4.119,-3.688 67.223,-39.686 107.123,-61.153 26.89,-14.312 68.956,-35.563 69.612,-35.129 z m -274.107,67.225 c 0.652,0 5.64,2.6 11.279,5.638 13.878,7.589 26.239,16.046 37.298,25.156 0.432,0.432 -5.204,4.988 -12.577,10.406 -20.602,14.746 -51.828,38.385 -70.041,52.915 -19.088,15.18 -19.734,15.613 -17.568,12.361 14.314,-21.903 21.467,-34.264 29.06,-50.093 6.721,-14.094 13.442,-30.793 18.213,-45.323 1.734,-6.289 3.904,-11.06 4.336,-11.06 z m 73.083,57.248 c 1.081,-0.214 2.386,1.735 8.238,10.411 12.361,18.429 21.903,43.154 24.292,63.104 l 0.429,4.339 -29.705,11.494 c -53.133,20.599 -102.139,40.985 -135.322,56.162 -9.322,4.339 -25.587,12.144 -36.211,17.352 -10.627,5.418 -19.301,9.539 -19.301,9.323 0,-0.216 6.721,-5.204 14.961,-11.278 64.844,-47.055 121.007,-98.669 163.076,-150.279 4.555,-5.423 8.677,-10.411 9.107,-10.627 z m -33.612,8.242 c 0.868,0.867 -23.853,28.84 -40.768,45.971 -41.853,42.723 -83.273,76.12 -134.669,108.649 -6.505,4.119 -12.359,7.804 -13.011,8.24 -1.519,0.867 0.432,-1.303 22.986,-25.808 14.314,-15.397 25.155,-28.408 37.516,-44.453 8.24,-10.624 9.759,-12.143 21.688,-20.604 31.878,-22.987 105.39,-72.864 106.258,-71.995 z" />
    </g>
    <path
       style="fill:#f5f5f5;stroke-width:0.60000002"
       inkscape:connector-curvature="0"
       id="path871"
       d="m 702.72425,438.98308 c -1.3656,0 -2.7318,0.1302 -4.0854,0.1302 -27.585,1.47 -46.1898,13.6098 -57.0678,37.317 -9.3036,21.441 -8.2878,49.4676 0.1044,71.04 9.759,21.0786 25.5282,32.2032 51.8496,36.405 5.5692,0.912 9.3036,3.9696 20.0898,16.5636 l 13.272,15.549 h 24.0708 l -16.0056,-16.1352 c -8.8476,-8.847 -16.0038,-16.5504 -16.0038,-17.2272 0,-0.6762 3.3846,-2.1594 7.4814,-3.408 13.506,-4.0872 24.7218,-14.5212 32.5674,-30.5124 6.3498,-12.8412 7.2612,-16.8108 8.1714,-32.7876 2.3814,-47.556 -22.692,-77.2878 -64.4454,-76.9482 z m 21.1038,124.362 c -11.7102,5.6718 -28.7142,6.804 -39.8136,2.7318 -11.4762,-4.215 -22.5876,-16.1334 -27.585,-29.6262 -5.5554,-14.7546 -4.7622,-41.9736 1.5876,-54.2316 10.2138,-19.5168 23.7204,-28.494 43.458,-28.494 29.2752,0 45.9294,17.9304 48.1026,51.6288 1.7178,28.131 -7.7028,49.2348 -25.737,57.9792 z m 415.81505,-83.7408 c -10.0968,0 -17.8254,4.0866 -23.031,12.1386 l -4.0854,6.3762 v -16.5768 h -17.4738 v 99.4068 h 17.4624 v -31.7736 c 0,-29.0544 0.3624,-32.4504 4.4226,-40.401 5.5956,-10.9032 15.2226,-16.3404 24.5274,-13.7382 l 6.2448,1.8216 v -17.2272 h -8.067 z m -102.6588,-0.9114 c -3.423,0 -7.0536,0.456 -10.6686,1.2504 -23.3826,6.114 -36.56285,28.4934 -35.75645,51.5238 0,19.2834 3.7464,28.9236 13.05125,39.0342 19.062,15.639 36.3012,16.8876 59.565,8.4966 3.969,-1.6914 8.2884,-3.6432 8.2884,-3.6432 v -15.639 l -8.2884,4.2936 c -18.8274,8.1966 -33.0096,8.1966 -44.3694,-1.458 -7.2456,-7.3776 -10.4346,-16.2252 -11.904,-26.3208 h 70.4556 v -13.4034 c 0,-27.3234 -16.446,-44.5764 -40.3878,-44.1342 z m -28.4952,43.5882 c 0,0 2.6028,-17.0442 12.2568,-23.7324 4.6464,-3.2796 9.9798,-4.866 15.1968,-4.866 5.2314,0 10.4484,1.6908 14.7552,4.9836 8.8488,6.8046 10.3314,23.4858 10.3314,23.4858 h -52.5396 v 0.129 z m -421.26665,-17.9286 c -18.9438,-11.4768 -27.3492,-19.7526 -26.3214,-29.511 2.94,-26.9982 36.3018,-23.2638 54.777,-13.0494 l 0.1314,-18.1632 c 0,0 -10.2144,-4.4238 -24.8526,-4.6584 -22.4574,-0.3384 -36.978,7.0254 -43.782,22.0146 -9.9936,22.119 -1.1448,38.799 30.8376,57.4062 17.955,10.4472 25.8912,19.5168 25.8912,29.4048 0,20.4282 -24.63,27.5586 -50.0406,14.742 -5.2296,-2.6022 -9.654,-4.7754 -9.888,-4.7754 -0.9114,5.7906 -0.4416,19.647 -0.4416,19.647 0,0 7.8072,3.2796 19.5162,5.5416 29.04,5.79 55.467,-7.8324 57.9648,-29.9514 2.1732,-20.7654 -5.3358,-31.6566 -33.7908,-48.6624 z m 707.07235,-25.893 c -3.4092,0 -7.0266,0.468 -10.8,1.2618 -23.3544,6.1152 -36.5099,28.4952 -35.6124,51.5256 0,19.257 3.735,28.8066 13.0374,38.9028 19.0626,15.6534 36.3024,16.9146 59.6838,8.5104 3.9552,-1.6908 8.262,-3.6156 8.262,-3.6156 v -15.6654 l -8.2746,4.3182 c -18.8658,8.1714 -33.0492,8.1714 -44.3682,-1.4826 -7.287,-7.3644 -10.4484,-16.1082 -11.919,-26.3226 h 70.3392 v -13.4016 c 0,-27.1926 -16.4472,-44.4594 -40.3878,-44.0034 z m -28.4952,43.5876 c 0,0 2.6286,-17.019 12.2694,-23.8374 4.6326,-3.291 9.9666,-4.8792 15.1842,-4.8792 5.2044,0 10.4484,1.6914 14.7564,4.9962 8.8476,6.8052 10.3314,23.6028 10.3314,23.6028 h -52.527 z m -320.28535,-17.4738 c -18.9438,-11.4498 -27.324,-19.752 -26.3088,-29.511 2.94,-27.012 36.3024,-23.2638 54.7776,-13.0494 l 0.1308,-18.1632 c 0,0 -10.2144,-4.4244 -24.8526,-4.6332 -22.4574,-0.3378 -36.978,7.0266 -43.7946,22.0152 -9.9798,22.1184 -1.0152,38.7996 30.8622,57.4062 17.9304,10.4358 25.8666,19.3872 25.8666,29.2752 0,20.4282 -24.6174,27.6756 -50.0286,14.7414 -5.2044,-2.6022 -9.6276,-4.7496 -9.888,-4.7496 -0.9114,5.7894 -0.4416,19.6476 -0.4416,19.6476 0,0 7.7148,3.162 19.386,5.5422 29.067,5.8032 55.506,-7.8072 57.9918,-29.9262 2.16,-20.6622 -5.3346,-31.5522 -33.7002,-48.5712 v -0.024 z m 451.45255,-25.203 c -10.0968,0 -17.9154,4.0974 -23.0298,12.1524 l -4.0866,6.3492 v -16.5498 h -17.4738 v 99.3798 h 17.4612 v -31.7724 c 0,-29.0418 0.3504,-32.451 4.425,-40.3878 5.5944,-10.89 15.2214,-16.341 24.525,-13.7268 l 6.2448,1.821 v -17.265 h -8.0658 z m -590.41255,24.63 v -63.3138 h -17.6166 v 140.2368 h 74.0868 v -16.5624 h -56.4696 v -60.3606 z m 407.40905,19.7376 -14.5206,37.785 -13.962,-37.9932 -14.1822,-42.1038 h -18.033 c 11.685,33.1272 24.3948,66.8256 37.212,99.4974 5.556,0.1296 11.1246,0 16.6794,0 l 19.6092,-49.2348 19.9722,-50.25 h -17.2392 c 0,0 -7.6128,19.9596 -15.5484,42.3126 z M 847.14905,402.47248 c 2.8368,0 5.2044,-0.9096 7.1562,-2.8614 1.9248,-1.9266 2.94,-4.1904 2.94,-7.0266 0,-2.8368 -1.0152,-5.205 -2.94,-7.0266 -1.9518,-1.821 -4.203,-2.733 -7.0266,-2.733 -2.8614,0 -5.2302,0.912 -7.1562,2.8368 -1.9512,1.9266 -2.8362,4.2948 -2.8362,7.0272 0,2.8626 0.9114,5.2296 2.8362,7.0266 1.8222,1.8204 4.1904,2.7318 7.0266,2.7318 z m -6.2448,-16.1334 c 1.6908,-1.6908 3.747,-2.4726 6.375,-2.4726 2.4726,0 4.5288,0.7818 6.2466,2.4726 1.6914,1.6914 2.6022,3.747 2.6022,6.2454 0,2.4978 -0.9108,4.6584 -2.6022,6.3492 -1.7172,1.6902 -3.774,2.4978 -6.2466,2.4978 -2.511,0 -4.554,-0.7806 -6.2448,-2.4978 -1.6914,-1.6908 -2.6022,-3.8514 -2.6022,-6.3492 0,-2.4984 0.7806,-4.5534 2.472,-6.2454 z m 4.2018,7.1568 h 1.1448 c 0.8076,0 1.6008,0.78 2.277,2.2638 l 1.3674,3.0696 h 2.1462 l -1.6908,-3.4098 c -0.6894,-1.365 -1.3656,-2.1588 -2.16,-2.3814 1.002,-0.234 1.7952,-0.5718 2.3682,-1.2492 0.5712,-0.5844 0.78,-1.3788 0.78,-2.277 0,-1.0404 -0.3252,-1.8204 -1.014,-2.3934 -0.7812,-0.6504 -2.0304,-1.0014 -3.6444,-1.0014 h -3.6156 v 12.7122 h 1.821 v -5.3346 z m 0,-5.9076 h 1.5882 c 1.1448,0 1.9518,0.234 2.394,0.5718 0.4296,0.3384 0.5466,0.7818 0.5466,1.5876 0,1.47 -0.912,2.1606 -2.6022,2.1606 h -1.9512 v -4.32 z m -291.0108,4.7748 c 0,-4.4238 -0.1296,-7.7148 -0.234,-9.654 h 0.1044 c 0.4548,2.2884 1.0146,3.9942 1.47,5.1258 l 16.914,37.785 h 2.8368 l 16.914,-38.1228 c 0.4566,-1.0398 0.912,-2.6022 1.4712,-4.7754 h 0.1296 c -0.3378,3.774 -0.4548,7.0524 -0.4548,9.6672 v 33.3486 h 5.7888 v -49.5732 h -7.26 l -15.5478,34.4796 c -0.573,1.3656 -1.3668,3.4098 -2.3814,6.1158 h -0.2352 c -0.3378,-1.3404 -1.1316,-3.3834 -2.2632,-5.8818 l -15.198,-34.8318 h -7.7148 v 49.5726 h 5.5686 v -33.231 z m 57.627,0.0924 h 4.9974 v 30.8748 h -4.9974 z m 2.4984,-11.3208 c 1.0416,0 1.926,-0.3522 2.6022,-1.0404 0.69,-0.6774 1.146,-1.5618 1.146,-2.6022 0,-1.0152 -0.339,-1.9266 -1.1322,-2.6022 -0.7026,-0.69 -1.6008,-1.0422 -2.6286,-1.0422 -1.014,0 -1.9248,0.3522 -2.6028,1.0422 -0.6876,0.6756 -1.1442,1.587 -1.1442,2.6022 0,1.1322 0.3516,1.9248 1.1442,2.6022 0.7824,0.6882 1.5882,1.0404 2.6028,1.0404 z m 38.124,42.873 v -5.4396 c -2.733,2.043 -5.6736,3.0588 -8.718,3.0588 -3.642,0 -6.597,-1.2486 -8.757,-3.642 -2.1462,-2.3682 -3.291,-5.6616 -3.291,-9.7596 0,-4.2936 1.1448,-7.704 3.5124,-10.3062 2.277,-2.4978 5.2314,-3.747 8.8488,-3.747 2.9532,0 5.7882,0.912 8.4054,2.7342 v -5.79 c -2.3808,-1.2492 -5.1,-1.8222 -8.1714,-1.8222 -5.6736,0 -10.0962,1.8222 -13.401,5.3364 -3.2796,3.5124 -4.971,8.2878 -4.971,14.052 0,5.1258 1.47,9.4332 4.5288,12.7254 3.1872,3.3822 7.2612,5.1 12.2568,5.1 3.8628,-0.1068 7.0242,-0.9138 9.7572,-2.5002 z m 14.2986,-16.4598 c 0,-4.0728 0.9108,-7.3638 2.6022,-9.6294 1.5882,-2.0418 3.513,-3.0696 5.79,-3.0696 1.926,0 3.2916,0.351 4.293,1.1448 v -5.9076 c -0.78,-0.3378 -1.9122,-0.4548 -3.3822,-0.4548 -2.043,0 -3.8634,0.6876 -5.4642,1.9518 -1.6914,1.3386 -3.0444,3.3828 -3.8382,5.985 h -0.1296 v -7.248 h -5.6598 v 35.391 h 5.6724 v -18.1632 z m 32.5674,18.8658 c 5.3352,0 9.6288,-1.7178 12.816,-5.1258 3.174,-3.3846 4.7616,-7.9374 4.7616,-13.6116 0,-5.7882 -1.4562,-10.2126 -4.4232,-13.506 -2.94,-3.2898 -7.0266,-4.8792 -12.3618,-4.8792 -5.3352,0 -9.6288,1.5882 -12.816,4.6584 -3.4086,3.3846 -5.2044,8.1594 -5.2044,14.2878 0,5.3346 1.4574,9.759 4.5288,13.0506 3.174,3.408 7.377,5.1126 12.699,5.1126 z m -8.067,-28.833 c 2.16,-2.277 4.9974,-3.4098 8.5092,-3.4098 3.6444,0 6.3762,1.1328 8.406,3.4098 2.0424,2.3814 3.0582,5.778 3.0582,10.3182 0,4.3188 -0.9114,7.7154 -2.8374,9.9924 -1.9248,2.3814 -4.7616,3.6426 -8.5098,3.6426 -3.6426,0 -6.4662,-1.2624 -8.6262,-3.6426 -2.1462,-2.394 -3.1746,-5.6736 -3.1746,-9.9924 -0.2208,-4.2936 0.9114,-7.806 3.1746,-10.3182 z m 50.4846,25.7496 c 2.1594,-1.9248 3.3054,-4.293 3.3054,-7.2612 0,-2.6022 -0.912,-4.7616 -2.6028,-6.4662 -1.38,-1.365 -3.5124,-2.6022 -6.5964,-3.8514 -2.7336,-1.1436 -4.4244,-2.16 -5.3358,-2.9538 -0.9102,-0.9102 -1.47,-2.0412 -1.47,-3.6426 0,-1.47 0.573,-2.6022 1.6926,-3.513 1.1448,-0.9096 2.6022,-1.3518 4.554,-1.3518 3.0576,0 5.6724,0.8058 8.0658,2.511 v -5.6736 c -2.2896,-1.1436 -4.7748,-1.6902 -7.6116,-1.6902 -3.6426,0 -6.7134,1.0026 -8.9784,2.9394 -2.3814,1.9272 -3.5124,4.425 -3.5124,7.3644 0,2.6022 0.78,4.7628 2.2626,6.3492 1.2492,1.3536 3.3846,2.7336 6.3498,3.9684 2.8374,1.2498 4.7628,2.3808 5.79,3.291 1.0146,0.912 1.47,2.043 1.47,3.3846 0,3.3036 -2.2632,5.0094 -6.6876,5.0094 -3.4092,0 -6.4656,-1.1196 -9.1998,-3.3828 v 6.1134 c 2.4726,1.485 5.4396,2.1606 8.718,2.1606 4.203,-0.2208 7.494,-1.2486 9.7584,-3.2916 z m 27.0114,-34.038 c -5.3358,0 -9.6288,1.5882 -12.8166,4.6584 -3.3828,3.3846 -5.2044,8.1594 -5.2044,14.2878 0,5.3346 1.4712,9.759 4.5282,13.0506 3.1878,3.408 7.377,5.1126 12.7122,5.1126 5.4642,0 9.6288,-1.7166 12.816,-5.127 3.1878,-3.3822 4.7748,-7.9362 4.7748,-13.6098 0,-5.79 -1.4832,-10.2132 -4.4244,-13.5054 -3.069,-3.2922 -7.1562,-4.8798 -12.3606,-4.8798 z m 11.007,18.6072 c 0,4.3188 -0.9108,7.7154 -2.8362,9.9924 -1.926,2.3814 -4.7628,3.6426 -8.5104,3.6426 -3.6444,0 -6.4668,-1.2624 -8.6274,-3.6426 -2.1462,-2.394 -3.174,-5.6736 -3.174,-9.9924 0,-4.554 1.1328,-8.0664 3.4098,-10.4358 2.1456,-2.2638 4.9836,-3.4092 8.5092,-3.4092 3.5124,0 6.3366,1.1442 8.3784,3.4092 1.8222,2.4978 2.8374,5.8944 2.8374,10.4358 z m 15.3282,17.7078 h 5.6598 v -30.6408 h 8.2878 v -4.7628 h -8.2884 v -5.4648 c 0,-4.9692 1.9248,-7.4676 5.907,-7.4676 1.3404,0 2.7066,0.3378 3.7218,0.9108 v -5.1126 c -1.0152,-0.4554 -2.3814,-0.5592 -4.0872,-0.5592 -3.057,0 -5.5548,0.9114 -7.5984,2.8362 -2.3814,2.2638 -3.6426,5.2044 -3.6426,9.1872 v 5.8032 h -5.9868 v 4.7616 h 5.9868 v 30.5256 z m 23.25,-9.6546 c 0,6.9228 3.0588,10.4484 9.3036,10.4484 2.2644,0 3.9684,-0.3636 5.3346,-1.1706 v -4.866 c -1.0404,0.7812 -2.277,1.146 -3.6426,1.146 -1.9248,0 -3.2784,-0.4572 -4.0728,-1.485 -0.807,-1.0134 -1.2618,-2.7324 -1.2618,-5.1006 v -19.9716 h 8.9766 v -4.7628 h -8.9766 v -10.434 c -1.9518,0.6762 -3.864,1.2492 -5.6736,1.8204 v 8.613 h -6.1152 v 4.7628 h 6.1152 v 20.9874 z m 608.92795,65.238 c -1.9254,-1.8204 -4.2024,-2.7318 -7.0254,-2.7318 -2.862,0 -5.2314,0.9114 -7.1568,2.8626 -1.9254,1.9128 -2.8374,4.293 -2.8374,7.0266 0,2.8368 0.912,5.205 2.823,7.0254 1.9266,1.8216 4.2936,2.7336 7.1568,2.7336 2.823,0 5.2044,-0.912 7.1568,-2.8374 1.9128,-1.9518 2.9274,-4.2024 2.9274,-7.0254 -0.1044,-2.8626 -1.1322,-5.2314 -3.0576,-7.0524 z m -0.9102,13.4028 c -1.692,1.6908 -3.7476,2.4714 -6.246,2.4714 -2.4714,0 -4.527,-0.7806 -6.2448,-2.4714 -1.6908,-1.7178 -2.6028,-3.8646 -2.6028,-6.3762 0,-2.4726 0.7806,-4.527 2.4984,-6.2448 1.6908,-1.6902 3.735,-2.4726 6.3492,-2.4726 2.4726,0 4.5294,0.7824 6.246,2.4726 1.6908,1.7178 2.6016,3.7722 2.6016,6.2448 0,2.6292 -0.7806,4.6584 -2.6016,6.3762 z m -5.1012,-5.7906 c 1.0146,-0.234 1.8222,-0.6894 2.3814,-1.2486 0.573,-0.5862 0.7818,-1.3806 0.7818,-2.289 0,-1.0152 -0.3258,-1.8222 -1.0146,-2.3814 -0.7806,-0.651 -2.0424,-1.0026 -3.642,-1.0026 h -3.6174 v 12.6984 h 1.8222 v -5.3346 h 1.131 c 0.7818,0 1.5624,0.78 2.2638,2.2638 l 1.3524,3.0576 h 2.1612 l -1.6908,-3.4098 c -0.5862,-1.4832 -1.263,-2.1606 -1.9512,-2.382 z m -1.2492,-1.1442 h -1.9512 v -4.293 h 1.6008 c 1.1322,0 1.9254,0.207 2.3814,0.5592 0.4548,0.3378 0.5592,0.7806 0.5592,1.5876 0,1.47 -0.9108,2.1474 -2.6016,2.1474 z m -316.5503,-98.925 h 1.5876 v -12.7122 h 4.2012 v -1.5876 h -9.9912 v 1.5876 h 4.2036 v 12.7122 z m 9.6282,-9.5502 c 0,-1.2372 0,-2.2518 -0.091,-2.823 0.1044,0.6756 0.3384,1.1322 0.4428,1.47 l 4.8798,10.9032 h 0.7806 l 4.8912,-11.0082 c 0.1314,-0.3378 0.2358,-0.7806 0.456,-1.365 -0.1044,1.1322 -0.1044,2.0406 -0.1044,2.7318 v 9.6288 h 1.692 v -14.2872 h -2.0436 l -4.4226,9.8628 c -0.1044,0.3522 -0.4572,1.0404 -0.6774,1.8222 h -0.1302 c -0.091,-0.4566 -0.3246,-0.9114 -0.6504,-1.6908 l -4.4238,-9.993 h -2.2896 v 14.3124 h 1.5996 v -9.5502 z" />
  </g>
</svg>
